<svg height="300px" width="300px" fill="#ffffff" xmlns="http://www.w3.org/2000/svg" xmlns:xlink="http://www.w3.org/1999/xlink" version="1.1" x="0px" y="0px" viewBox="0 0 100 100" enable-background="new 0 0 100 100" xml:space="preserve"><symbol viewBox="-27.299 -39.024 54.598 78.047"><path fill="none" d="M11.157,34.02c-1.275-1.85-3.408-3.026-5.733-3.026c-2.13,0-4.118,0.985-5.424,2.607   c-1.306-1.622-3.294-2.607-5.423-2.607c-2.325,0-4.457,1.176-5.734,3.026c-1.275-1.85-3.408-3.026-5.733-3.026   c-1.913,0-3.648,0.776-4.908,2.029v-66.474c1.26,1.253,2.995,2.029,4.908,2.029c2.325,0,4.458-1.176,5.733-3.026   c1.277,1.85,3.409,3.026,5.734,3.026c2.129,0,4.117-0.986,5.423-2.607c1.306,1.622,3.294,2.607,5.424,2.607   c2.325,0,4.458-1.176,5.733-3.026c1.277,1.85,3.409,3.026,5.734,3.026c1.913,0,3.647-0.776,4.907-2.028v66.473   c-1.26-1.253-2.994-2.028-4.907-2.028C14.567,30.995,12.435,32.17,11.157,34.02z"/><path fill="#ffffff" stroke="#ffffff" stroke-width="3" stroke-miterlimit="10" d="M-20.463-37.524   c0.391,1.615,1.839,2.822,3.573,2.822c1.733,0,3.181-1.207,3.572-2.822h4.323c0.391,1.615,1.839,2.822,3.573,2.822   s3.182-1.207,3.573-2.822h3.701c0.391,1.615,1.839,2.822,3.573,2.822s3.182-1.207,3.573-2.822h4.322   c0.391,1.615,1.839,2.822,3.573,2.822s3.182-1.207,3.573-2.822h5.335v75.047h-5.266c-0.219-1.825-1.759-3.25-3.641-3.25   s-3.423,1.425-3.641,3.25H9.065c-0.219-1.825-1.759-3.25-3.641-3.25s-3.423,1.425-3.641,3.25h-3.564   c-0.219-1.825-1.759-3.25-3.641-3.25s-3.423,1.425-3.641,3.25h-4.186c-0.219-1.825-1.758-3.25-3.641-3.25   c-1.883,0-3.423,1.425-3.641,3.25h-5.267v-75.047H-20.463z"/></symbol><symbol viewBox="-30.282 -48.056 60.563 94.113"><path fill="#ffffff" stroke="#ffffff" stroke-width="6" stroke-miterlimit="10" d="M16.006,43.056   c-3.233-4.883-8.77-8.108-15.065-8.108s-11.832,3.225-15.065,8.108h-10.584v-88.113h10.584c3.233,4.883,8.77,8.108,15.065,8.108   s11.832-3.224,15.065-8.108H26.59v88.113H16.006z"/><line fill="none" stroke="#ffffff" stroke-width="5" stroke-linecap="round" stroke-linejoin="round" stroke-miterlimit="10" stroke-dasharray="7,8" x1="27.781" y1="-20.755" x2="-27.782" y2="-20.755"/></symbol><symbol viewBox="-24.712 -42.834 54.356 85.667"><path fill="#ffffff" stroke="#ffffff" stroke-width="5" stroke-miterlimit="10" d="M17.181,40.333h-4.475   c-0.466-2.355-2.539-4.131-5.031-4.131c-2.491,0-4.565,1.776-5.03,4.131h-4.883c-0.466-2.355-2.539-4.131-5.031-4.131   c-2.491,0-4.565,1.776-5.03,4.131h-4.883c-0.466-2.355-2.539-4.131-5.03-4.131v-72.023c2.622,0,4.76-1.974,5.069-4.512h4.806   c0.309,2.539,2.447,4.512,5.069,4.512c2.622,0,4.76-1.974,5.069-4.512h4.806c0.309,2.539,2.447,4.512,5.069,4.512   c2.622,0,4.76-1.974,5.069-4.512h4.398c0.309,2.539,2.447,4.512,5.069,4.512v72.023C19.72,36.202,17.647,37.978,17.181,40.333z"/><line fill="none" stroke="#ffffff" stroke-width="4" stroke-linecap="round" stroke-linejoin="round" stroke-miterlimit="10" stroke-dasharray="7,6" x1="-22.644" y1="-17.395" x2="27.644" y2="-17.395"/></symbol><symbol viewBox="-23.971 -42.094 47.944 84.188"><g><path fill="#ffffff" stroke="#ffffff" stroke-width="3.521" stroke-miterlimit="10" d="M17.182,40.333h-4.475    c-0.466-2.355-2.539-4.131-5.031-4.131c-2.491,0-4.565,1.776-5.03,4.131h-4.883c-0.466-2.355-2.539-4.131-5.031-4.131    c-2.491,0-4.565,1.776-5.03,4.131h-4.883c-0.466-2.355-2.539-4.131-5.03-4.131v-72.023c2.622,0,4.76-1.974,5.069-4.512h4.806    c0.309,2.539,2.447,4.512,5.069,4.512c2.622,0,4.76-1.974,5.069-4.512h4.806c0.309,2.539,2.447,4.512,5.069,4.512    c2.622,0,4.76-1.974,5.069-4.512h4.398c0.309,2.539,2.447,4.512,5.069,4.512v72.023C19.721,36.202,17.648,37.978,17.182,40.333z"/></g><polygon fill="#ffffff" stroke="#ffffff" stroke-width="3.8113" stroke-miterlimit="10" points="5.14,17.02 11.952,13.853    8.431,7.217 7.524,-0.241 0.124,1.057 -7.248,-0.385 -8.301,7.053 -11.951,13.62 -5.201,16.919 -0.084,22.42  "/></symbol><symbol id="a" viewBox="-21.087 -31.266 42.17 72.87"><path fill="#ffffff" stroke="#ffffff" stroke-width="5" stroke-miterlimit="10" d="M6.373,39.104h5.21c0-3.87,3.13-7,7-7v-53.87   c-3.87,0-7-3.14-7-7h-5.21"/><path fill="#ffffff" stroke="#ffffff" stroke-width="5" stroke-miterlimit="10" d="M-6.377-28.766h-5.21c0,3.86-3.13,7-7,7v53.87   c3.87,0,7,3.13,7,7h5.21"/><line fill="none" stroke="#ffffff" stroke-width="5" stroke-miterlimit="10" x1="2.373" y1="39.104" x2="-2.377" y2="39.104"/><line fill="none" stroke="#ffffff" stroke-width="5" stroke-miterlimit="10" x1="2.373" y1="-28.766" x2="-2.377" y2="-28.766"/><g><path stroke="#ffffff" stroke-width="0.9" stroke-miterlimit="10" d="M-9.901-10.118c0-0.994-0.806-1.8-1.8-1.8    s-1.8,0.806-1.8,1.8s0.806,1.8,1.8,1.8S-9.901-9.124-9.901-10.118z"/><path stroke="#ffffff" stroke-width="0.9" stroke-miterlimit="10" d="M-2.101-10.118c0-0.994-0.806-1.8-1.8-1.8    s-1.8,0.806-1.8,1.8s0.806,1.8,1.8,1.8S-2.101-9.124-2.101-10.118z"/><path stroke="#ffffff" stroke-width="0.9" stroke-miterlimit="10" d="M5.699-10.118c0-0.994-0.806-1.8-1.8-1.8s-1.8,0.806-1.8,1.8    s0.806,1.8,1.8,1.8S5.699-9.124,5.699-10.118z"/><path stroke="#ffffff" stroke-width="0.9" stroke-miterlimit="10" d="M13.499-10.118c0-0.994-0.806-1.8-1.8-1.8    s-1.8,0.806-1.8,1.8s0.806,1.8,1.8,1.8S13.499-9.124,13.499-10.118z"/></g></symbol><symbol viewBox="-21.086 -31.266 42.17 72.87"><use xlink:href="#a" width="42.17" height="72.87" x="-21.087" y="-31.266" transform="matrix(1 0 0 1 6.996482e-004 -2.671033e-004)" overflow="visible"/><line fill="none" stroke="#ffffff" stroke-width="4" stroke-miterlimit="10" x1="9.224" y1="13.75" x2="-9.223" y2="13.75"/></symbol><g display="none"><path display="inline" fill="#ffffff" d="M348.792,1194.743H-889.006c-2.084,0-3.789-1.705-3.789-3.789V3.789   c0-2.084,1.705-3.789,3.789-3.789H348.792c2.084,0,3.789,1.705,3.789,3.789v1187.164   C352.582,1193.038,350.877,1194.743,348.792,1194.743z"/></g><g><g><polygon fill="none" points="87.286,18.502 78.006,18.502 78.006,21.943 70.755,21.943 70.755,18.502 53.625,18.502     53.625,21.943 46.375,21.943 46.375,18.502 29.245,18.502 29.245,21.943 21.994,21.943 21.994,18.502 12.714,18.502     12.714,31.104 87.286,31.104   "/><path fill="none" d="M70.015,80.732c2.671,3.015,7.466,3.855,11.025,1.992c3.907-3.355,6.246-8.166,6.246-13.782V36.283H12.714    v51.466h10.263c17.326-2.535,28.819-5.365,38.948-11.248c0.897-0.521,2.022-0.637,3.046-0.47    C67.298,76.413,68.452,78.967,70.015,80.732z M27.865,50.451c0-3.419,2.782-6.201,6.201-6.201c3.419,0,6.201,2.782,6.201,6.201    s-2.782,6.201-6.201,6.201C30.647,56.652,27.865,53.87,27.865,50.451z M50,72.257c-6.834,0-12.394-5.56-12.394-12.394h5.611    c0,3.74,3.043,6.782,6.783,6.782s6.783-3.042,6.783-6.782h5.611C62.394,66.697,56.834,72.257,50,72.257z M59.733,50.451    c0-3.419,2.782-6.201,6.201-6.201c3.419,0,6.201,2.782,6.201,6.201s-2.782,6.201-6.201,6.201    C62.515,56.652,59.733,53.87,59.733,50.451z"/><path fill="#ffffff" d="M72.135,50.451c0-3.419-2.782-6.201-6.201-6.201c-3.419,0-6.201,2.782-6.201,6.201    s2.782,6.201,6.201,6.201C69.353,56.652,72.135,53.87,72.135,50.451z"/><path fill="#ffffff" d="M40.267,50.451c0-3.419-2.782-6.201-6.201-6.201c-3.419,0-6.201,2.782-6.201,6.201    s2.782,6.201,6.201,6.201C37.485,56.652,40.267,53.87,40.267,50.451z"/><path fill="#ffffff" d="M50,66.645c-3.74,0-6.783-3.042-6.783-6.782h-5.611c0,6.834,5.56,12.394,12.394,12.394    s12.394-5.56,12.394-12.394h-5.611C56.783,63.603,53.74,66.645,50,66.645z"/><path d="M94.537,68.942V11.252H78.006V5h-7.251v6.252h-17.13V5h-7.251v6.252h-17.13V5h-7.251v6.252H5.463V95h60.994    C82.465,95,94.537,83.798,94.537,68.942z M12.714,18.502h9.28v3.441h7.251v-3.441h17.13v3.441h7.251v-3.441h17.13v3.441h7.251    v-3.441h9.28v12.602H12.714V18.502z M61.925,76.501c-10.129,5.883-21.622,8.713-38.948,11.248H12.714V36.283h74.572v32.659    c0,5.616-2.339,10.426-6.246,13.782c-3.559,1.864-8.354,1.023-11.025-1.992c-1.563-1.765-2.718-4.32-5.044-4.701    C63.947,75.864,62.822,75.98,61.925,76.501z"/></g></g></svg>