<svg height="300px" width="300px" fill="#ffffff" xmlns:dc="http://purl.org/dc/elements/1.1/" xmlns:cc="http://creativecommons.org/ns#" xmlns:rdf="http://www.w3.org/1999/02/22-rdf-syntax-ns#" xmlns:svg="http://www.w3.org/2000/svg" xmlns="http://www.w3.org/2000/svg" xmlns:sodipodi="http://sodipodi.sourceforge.net/DTD/sodipodi-0.dtd" xmlns:inkscape="http://www.inkscape.org/namespaces/inkscape" version="1.1" x="0px" y="0px" viewBox="0 0 100 100"><g transform="translate(0,-952.36218)"><path style="font-size:medium;font-style:normal;font-variant:normal;font-weight:normal;font-stretch:normal;text-indent:0;text-align:start;text-decoration:none;line-height:normal;letter-spacing:normal;word-spacing:normal;text-transform:none;direction:ltr;block-progression:tb;writing-mode:lr-tb;text-anchor:start;baseline-shift:baseline;opacity:1;color:#000000;fill:#ffffff;fill-opacity:1;stroke:none;stroke-width:6;marker:none;visibility:visible;display:inline;overflow:visible;enable-background:accumulate;font-family:Sans;-inkscape-font-specification:Sans" d="M 7.6875 21 A 3.0040663 3.0040663 0 1 0 8 27 L 92 27 A 3.0003 3.0003 0 1 0 92 21 L 8 21 A 3.0003 3.0003 0 0 0 7.6875 21 z M 7.6875 47 A 3.0040663 3.0040663 0 1 0 8 53 L 92 53 A 3.0003 3.0003 0 1 0 92 47 L 8 47 A 3.0003 3.0003 0 0 0 7.6875 47 z M 7.6875 73 A 3.0040663 3.0040663 0 1 0 8 79 L 92 79 A 3.0003 3.0003 0 1 0 92 73 L 8 73 A 3.0003 3.0003 0 0 0 7.6875 73 z " transform="translate(0,952.36218)"/></g></svg>